<?xml version="1.0" encoding="utf-8"?>
<!-- Generator: Adobe Illustrator 15.0.0, SVG Export Plug-In  -->
<!DOCTYPE svg PUBLIC "-//W3C//DTD SVG 1.1//EN" "http://www.w3.org/Graphics/SVG/1.1/DTD/svg11.dtd" [
	<!ENTITY ns_flows "http://ns.adobe.com/Flows/1.0/">
]>
<svg version="1.1"
	 xmlns="http://www.w3.org/2000/svg" xmlns:xlink="http://www.w3.org/1999/xlink" xmlns:a="http://ns.adobe.com/AdobeSVGViewerExtensions/3.0/"
	 x="0px" y="0px" width="32px" height="32px" viewBox="-3.071 -0.917 32 32" enable-background="new -3.071 -0.917 32 32"
	 xml:space="preserve">
<defs>
</defs>
<path fill="#C8C8C8" d="M22.985,14.365H4.31V9.338c0-4.357,4.263-7.901,8.619-7.901s7.9,4.262,7.9,8.619
	c0,0.396,0.321,0.718,0.719,0.718c0.396,0,0.718-0.322,0.718-0.718C22.266,4.907,18.077,0,12.929,0S2.873,4.188,2.873,9.338v5.027
	C1.288,14.365,0,15.653,0,17.237v10.057c0,1.585,1.288,2.872,2.873,2.872h20.111c1.584,0,2.873-1.287,2.873-2.872V17.237
	C25.857,15.653,24.568,14.365,22.985,14.365L22.985,14.365L22.985,14.365L22.985,14.365z M24.422,27.294
	c0,0.792-0.646,1.437-1.437,1.437H2.873c-0.792,0-1.438-0.645-1.438-1.437V17.237c0-0.791,0.646-1.436,1.438-1.436h20.111
	c0.792,0,1.438,0.645,1.438,1.436V27.294L24.422,27.294L24.422,27.294L24.422,27.294z M12.929,18.675
	c-0.793,0-1.436,0.643-1.436,1.436c0,0.532,0.287,0.996,0.717,1.244v2.348c0,0.396,0.321,2.155,0.719,2.155s0.718-1.759,0.718-2.155
	v-2.348c0.43-0.248,0.718-0.712,0.718-1.244C14.364,19.317,13.722,18.675,12.929,18.675L12.929,18.675L12.929,18.675L12.929,18.675z
	 M12.929,18.675"/>
</svg>
