<?xml version="1.0" encoding="utf-8"?>
<!-- Generator: Adobe Illustrator 15.0.0, SVG Export Plug-In  -->
<!DOCTYPE svg PUBLIC "-//W3C//DTD SVG 1.1//EN" "http://www.w3.org/Graphics/SVG/1.1/DTD/svg11.dtd" [
	<!ENTITY ns_flows "http://ns.adobe.com/Flows/1.0/">
]>
<svg version="1.1"
	 xmlns="http://www.w3.org/2000/svg" xmlns:xlink="http://www.w3.org/1999/xlink" xmlns:a="http://ns.adobe.com/AdobeSVGViewerExtensions/3.0/"
	 x="0px" y="0px" width="32px" height="32px" viewBox="-1.933 -0.526 32 32" enable-background="new -1.933 -0.526 32 32"
	 xml:space="preserve">
<defs>
</defs>
<path fill="#C8C8C8" d="M28.128,30.112c0.025,0.089-0.035,0.026-0.011,0.117L28.128,30.112c0,0.461-0.374,0.835-0.833,0.835
	c-0.461,0-0.872-0.374-0.872-0.835l0,0c-1.606-5.322-6.529-9.202-12.36-9.202c-5.828,0-10.775,4.063-12.384,9.387l0.023-0.185
	c0,0.555-0.551,0.835-0.869,0.835C0.371,30.947,0,30.573,0,30.112l0,0c0.021-0.091,0.027-0.18,0.053-0.27
	c0.01-0.024,0.012-0.049,0.021-0.071c1.36-4.674,4.973-8.386,9.586-9.851c-3.55-1.666-6.014-5.273-6.014-9.466
	C3.646,4.683,8.309,0,14.063,0c5.753,0,10.419,4.683,10.419,10.455c0,4.192-2.465,7.8-6.016,9.465
	c4.616,1.466,8.228,5.178,9.587,9.851C28.062,29.794,28.12,30.089,28.128,30.112L28.128,30.112z M22.814,10.455
	c0-4.852-3.918-8.784-8.752-8.784c-4.832,0-8.75,3.933-8.75,8.784c0,4.853,3.918,8.783,8.75,8.783
	C18.896,19.238,22.814,15.308,22.814,10.455L22.814,10.455z M22.814,10.455"/>
</svg>
