<?xml version="1.0" standalone="no"?>
<!DOCTYPE svg PUBLIC "-//W3C//DTD SVG 1.1//EN" "http://www.w3.org/Graphics/SVG/1.1/DTD/svg11.dtd" >
<svg xmlns="http://www.w3.org/2000/svg">
<metadata>Generated by IcoMoon</metadata>
<defs>
<font id="icomoon" horiz-adv-x="1024">
<font-face units-per-em="1024" ascent="960" descent="-64" />
<missing-glyph horiz-adv-x="1024" />
<glyph unicode="&#x20;" horiz-adv-x="512" d="" />
<glyph unicode="&#xe900;" glyph-name="sc_03" d="M985.6 463.424l-458.176 458.176c-3.936 3.936-9.408 6.4-15.424 6.4s-11.456-2.464-15.424-6.4l-458.176-458.176c-3.968-3.936-6.4-9.408-6.4-15.424 0-12.064 9.76-21.824 21.824-21.824 6.016 0 11.488 2.432 15.424 6.4l93.664 93.664v-536.416c0-12.064 9.76-21.824 21.792-21.824h654.56c12.032 0 21.824 9.76 21.824 21.824v536.416l93.664-93.664c3.968-3.968 9.408-6.4 15.424-6.4 12.064 0 21.824 9.76 21.824 21.824 0 6.016-2.432 11.488-6.4 15.424zM599.296 11.648h-174.56v349.088h174.56v-349.088zM817.44 11.648h-174.56v370.912c0 12.032-9.76 21.824-21.824 21.824h-218.176c-12.032 0-21.824-9.792-21.824-21.824v-370.912h-174.496v558.24l305.44 305.44 305.44-305.44v-558.24z" />
<glyph unicode="&#xe901;" glyph-name="sc_05" d="M985.6 463.424l-458.176 458.176c-3.936 3.936-9.408 6.4-15.424 6.4s-11.456-2.464-15.424-6.4l-458.176-458.176c-3.968-3.936-6.4-9.408-6.4-15.424 0-12.064 9.76-21.824 21.824-21.824 6.016 0 11.488 2.432 15.424 6.4l93.664 93.664v-536.416c0-12.064 9.76-21.824 21.792-21.824h195.456l0.896 414.56c0 12.032 9.76 21.824 21.824 21.824h218.176c12.032 0 21.824-9.792 21.824-21.824v-414.56h196.384c12.032 0 21.824 9.76 21.824 21.824v536.416l93.664-93.664c3.968-3.968 9.408-6.4 15.424-6.4 12.064 0 21.824 9.76 21.824 21.824 0 6.016-2.432 11.488-6.4 15.424zM424.704-32h174.56v392.736h-174.56v-392.736z" />
<glyph unicode="&#xe902;" glyph-name="sc_07" d="M119.296 223.648c-48.224 0-87.296-39.072-87.296-87.296 0-48.192 39.072-87.264 87.296-87.264 48.192 0 87.264 39.072 87.264 87.264 0 48.224-39.104 87.296-87.264 87.296zM119.296 92.736c-24.096 0-43.648 19.52-43.648 43.616s19.52 43.648 43.648 43.648c24.096 0 43.616-19.52 43.616-43.648 0-24.096-19.552-43.616-43.616-43.616zM381.088 660h523.616c48.224 0 87.296 39.072 87.296 87.296 0 48.192-39.072 87.264-87.296 87.264h-523.616c-48.192 0-87.296-39.072-87.296-87.264 0.032-48.224 39.104-87.296 87.296-87.296zM381.088 790.88h523.616c24.096 0 43.648-19.52 43.648-43.616 0-24.128-19.52-43.648-43.648-43.648h-523.616c-24.096 0-43.648 19.52-43.648 43.648 0 24.096 19.552 43.616 43.648 43.616zM119.296 529.056c-48.224 0-87.296-39.040-87.296-87.232s39.072-87.264 87.296-87.264c48.192 0 87.264 39.072 87.264 87.264s-39.104 87.232-87.264 87.232zM119.296 398.176c-24.096 0-43.648 19.52-43.648 43.616s19.52 43.648 43.648 43.648c24.096 0 43.616-19.52 43.616-43.648s-19.552-43.616-43.616-43.616zM119.296 834.56c-48.224 0-87.296-39.104-87.296-87.264 0-48.192 39.072-87.296 87.296-87.296 48.192 0 87.264 39.072 87.264 87.296 0 48.16-39.104 87.264-87.264 87.264zM119.296 703.648c-24.096 0-43.648 19.52-43.648 43.648 0 24.096 19.52 43.616 43.648 43.616 24.096 0 43.616-19.52 43.616-43.616 0-24.128-19.552-43.648-43.616-43.648zM904.704 529.056h-523.616c-48.192 0-87.296-39.040-87.296-87.264 0-48.16 39.072-87.264 87.296-87.264h523.616c48.192 0 87.296 39.072 87.296 87.264 0 48.224-39.072 87.264-87.296 87.264zM904.704 398.176h-523.616c-24.096 0-43.648 19.52-43.648 43.616 0 24.128 19.552 43.648 43.648 43.648h523.616c24.096 0 43.648-19.52 43.648-43.648 0-24.096-19.52-43.616-43.648-43.616zM904.704 223.648h-523.616c-48.192 0-87.296-39.072-87.296-87.296 0-48.192 39.072-87.264 87.296-87.264h523.616c48.192 0 87.296 39.072 87.296 87.264 0 48.224-39.072 87.296-87.296 87.296zM904.704 92.736h-523.616c-24.096 0-43.648 19.52-43.648 43.616 0 24.064 19.552 43.648 43.648 43.648h523.616c24.096 0 43.648-19.552 43.648-43.648s-19.52-43.616-43.648-43.616z" />
<glyph unicode="&#xe903;" glyph-name="sc_09" d="M119.296 529.056c-48.224 0-87.296-39.040-87.296-87.232s39.072-87.264 87.296-87.264c48.192 0 87.264 39.072 87.264 87.264-0.032 48.192-39.104 87.232-87.264 87.232zM381.088 660h523.616c48.224 0 87.296 39.072 87.296 87.296 0 48.192-39.072 87.264-87.296 87.264h-523.616c-48.192 0-87.296-39.072-87.296-87.264 0.032-48.224 39.104-87.296 87.296-87.296zM119.296 223.648c-48.224 0-87.296-39.072-87.296-87.296 0-48.192 39.072-87.264 87.296-87.264 48.192 0 87.264 39.072 87.264 87.264-0.032 48.224-39.104 87.296-87.264 87.296zM119.296 834.56c-48.224 0-87.296-39.104-87.296-87.264 0-48.192 39.072-87.296 87.296-87.296 48.192 0 87.264 39.072 87.264 87.296-0.032 48.16-39.104 87.264-87.264 87.264zM904.704 529.056h-523.616c-48.192 0-87.296-39.040-87.296-87.264 0-48.16 39.104-87.264 87.296-87.264h523.616c48.224 0 87.296 39.072 87.296 87.264 0 48.224-39.072 87.264-87.296 87.264zM904.704 223.648h-523.616c-48.192 0-87.296-39.072-87.296-87.296 0-48.192 39.104-87.264 87.296-87.264h523.616c48.224 0 87.296 39.072 87.296 87.264 0 48.224-39.072 87.296-87.296 87.296z" />
<glyph unicode="&#xe904;" glyph-name="sc_11" d="M249.856 338.368v4.064c0.096 21.984 17.664 39.52 39.68 39.584h44.384l-168.992 459.808h-132.928v-37.28h106.976l141.792-385.76c-38.368-4.384-68.064-36.832-68.192-76.288v-4.192c0.096-42.464 34.464-76.768 76.896-76.864l652.8-0.032v37.28l-652.736 0.032c-22.048 0.096-39.584 17.664-39.68 39.648v0 0zM413.344 384.96h438.88l139.776 353.856h-703.712l125.056-353.856zM937.216 701.536l-110.368-279.328h-387.104l-98.752 279.328h596.224zM349.664 234.592c-49.76-0.032-90.208-40.384-90.208-90.24s40.48-90.176 90.208-90.176c49.888 0.032 90.176 40.352 90.208 90.176 0 49.824-40.352 90.176-90.208 90.24v0 0zM349.664 91.392c-29.216 0.064-52.896 23.68-52.896 52.96 0 29.184 23.68 52.896 52.896 52.928 29.28-0.032 52.896-23.712 52.928-52.928 0-29.28-23.648-52.96-52.928-52.96v0 0zM814.944 234.528v0.032c-49.856-0.032-90.208-40.384-90.208-90.24 0-49.824 40.384-90.176 90.208-90.176s90.24 40.32 90.24 90.176-40.448 90.208-90.24 90.208v0 0zM814.944 91.392c-29.28 0.064-52.832 23.68-52.896 52.96 0.064 29.216 23.616 52.896 52.896 52.928 29.312-0.032 52.928-23.744 53.024-52.928-0.096-29.216-23.712-52.896-53.024-52.96v0 0z" />
<glyph unicode="&#xe905;" glyph-name="sc_13" d="M249.856 348.192v4.064c0.096 21.952 17.664 39.488 39.68 39.552h44.384l-168.96 459.84h-132.96v-37.248h106.976l141.792-385.76c-38.368-4.384-68.064-36.832-68.192-76.288v-4.192c0.096-42.464 34.464-76.768 76.896-76.832l652.8-0.032v37.28h-652.736c-22.048 0.064-39.584 17.632-39.68 39.616v0 0zM413.344 394.784h438.88l139.776 353.888h-703.712l125.056-353.888zM349.664 244.416c-49.76-0.032-90.208-40.384-90.208-90.24 0-49.824 40.48-90.176 90.208-90.176 49.888 0.032 90.176 40.352 90.208 90.176 0 49.824-40.352 90.176-90.208 90.24v0 0zM814.944 244.352v0.032c-49.856-0.032-90.208-40.384-90.208-90.24 0-49.824 40.384-90.176 90.208-90.176s90.24 40.352 90.24 90.176c0.032 49.856-40.448 90.208-90.24 90.208v0 0z" />
<glyph unicode="&#xe906;" glyph-name="sc_21" d="M948.352 491.648h-767.36l361.856 361.856c7.936 7.872 12.8 18.784 12.8 30.848 0 24.128-19.552 43.648-43.648 43.648-12.064 0-22.944-4.896-30.848-12.768l-436.384-436.384c-7.872-7.936-12.768-18.784-12.768-30.848s4.864-22.976 12.768-30.848l436.384-436.384c7.904-7.904 18.784-12.768 30.848-12.768 24.096 0 43.648 19.52 43.648 43.648 0 12.064-4.864 22.912-12.8 30.848l-361.856 361.856h767.36c24.096 0 43.648 19.52 43.648 43.648s-19.552 43.648-43.648 43.648z" />
<glyph unicode="&#xe907;" glyph-name="sc_22" d="M366.016 448l374.272 411.712c7.232 7.232 11.712 17.216 11.712 28.288 0 22.080-17.92 40-40 40-11.040 0-21.056-4.512-28.288-11.712l-400-440c-7.232-7.264-11.712-17.28-11.712-28.288 0-11.072 4.48-21.056 11.712-28.288l400-440c7.232-7.264 17.248-11.712 28.288-11.712 22.080 0 40 17.888 40 40 0 11.008-4.48 21.056-11.712 28.288l-374.272 411.712z" />
<glyph unicode="&#xe908;" glyph-name="sc_23" d="M985.6 5.248l-231.264 231.232c66.144 73.44 106.72 170.336 106.72 276.96 0.032 228.96-185.568 414.56-414.496 414.56-228.96 0-414.56-185.6-414.56-414.56s185.6-414.56 414.56-414.56c106.624 0 203.52 40.608 276.96 106.72l231.232-231.264c3.936-3.968 9.408-6.4 15.424-6.4 12.064 0.064 21.824 9.824 21.824 21.888 0 6.016-2.432 11.456-6.4 15.424zM446.56 142.528c-204.832 0-370.912 166.080-370.912 370.912s166.048 370.912 370.912 370.912 370.912-166.048 370.912-370.912-166.080-370.912-370.912-370.912z" />
<glyph unicode="&#xe909;" glyph-name="sc_24" d="M818.016 464.96l-432 456c-4.32 4.352-10.336 7.040-16.96 7.040-13.28 0-24-10.72-24-24 0-6.656 2.688-12.64 7.040-16.96l415.904-439.040-415.904-439.040c-4.352-4.352-7.040-10.368-7.040-16.96 0-13.28 10.72-24 24-24 6.624 0 12.64 2.656 16.96 7.040l432 456c4.32 4.32 7.040 10.336 7.040 16.96s-2.72 12.608-7.040 16.96z" />
<glyph unicode="&#xe90a;" d="M730.176 332.96h-158.688l-59.488 158.688-59.488-158.688h-158.688l128.928-99.168-59.488-178.496 148.736 109.056 148.736-109.056-59.488 178.496z" />
<glyph unicode="&#xe90b;" d="M960.032-7.328l0.384 0.032-86.464 654.528-0.384-0.032c-1.408 10.624-10.080 18.976-21.024 18.976h-151.328v87.264c0 96.416-77.44 174.56-172.896 174.56-95.488 0-172.928-78.144-172.928-174.56v-87.264h-151.328c-10.912 0-19.616-8.352-21.024-18.976l-0.384 0.032-86.464-654.56 0.384-0.032c-0.128-0.96-0.576-1.824-0.576-2.816 0-12.064 9.664-21.824 21.632-21.824h821.344c11.968 0 21.632 9.76 21.632 21.824 0 0.992-0.416 1.856-0.576 2.848zM722.848 495.296c0-24.096-19.36-43.616-43.264-43.616s-43.232 19.52-43.232 43.616c0 16.096 8.736 30.016 21.632 37.6v131.712h43.232v-131.712c12.864-7.552 21.632-21.504 21.632-37.6zM398.624 753.44c0 72.288 58.048 130.912 129.696 130.912s129.696-58.624 129.696-130.912v-87.264h-259.36v87.264zM355.36 532.896v131.712h43.264v-131.712c12.864-7.552 21.6-21.472 21.6-37.6 0-24.096-19.328-43.616-43.232-43.616s-43.264 19.52-43.264 43.616c0.032 16.096 8.768 30.048 21.632 37.6zM675.648 55.296l-147.328 109.088-147.36-109.088 58.944 178.496-127.712 99.168h157.184l58.976 158.688 58.944-158.688h157.184l-127.712-99.168 58.88-178.496z" />
<glyph unicode="&#xe90c;" glyph-name="sc_26" d="M839.328 186.016c-32.736 0-61.792-14.752-81.792-37.6l-469.632 266.176c3.424 10.592 5.76 21.664 5.76 33.408 0 11.712-2.304 22.816-5.76 33.408l469.664 266.144c20-22.848 49.024-37.6 81.792-37.6 60.192 0 108.992 48.832 108.992 109.024s-48.832 109.024-109.024 109.024c-60.224 0-108.992-48.8-108.992-108.992 0-11.744 2.304-22.848 5.76-33.408l-469.664-266.176c-20 22.848-49.024 37.6-81.792 37.6-60.192 0-108.992-48.8-108.992-108.992s48.8-109.024 108.992-109.024c32.736 0 61.792 14.752 81.792 37.6l469.664-266.144c-3.424-10.592-5.76-21.696-5.76-33.408 0-60.192 48.768-109.024 108.992-109.024 60.192 0 108.992 48.832 108.992 109.024s-48.8 108.96-108.992 108.96zM839.52 884.672c36.16 0 65.472-29.312 65.472-65.472s-29.312-65.472-65.472-65.472-65.472 29.28-65.472 65.472c0 36.128 29.312 65.472 65.472 65.472zM184.832 382.72c-36.16 0-65.472 29.312-65.472 65.472s29.312 65.472 65.472 65.472c36.192 0 65.472-29.312 65.472-65.472s-29.28-65.472-65.472-65.472zM839.52 11.744c-36.16 0-65.472 29.312-65.472 65.44 0 36.192 29.312 65.472 65.472 65.472s65.472-29.312 65.472-65.472c0-36.128-29.312-65.44-65.472-65.44z" />
<glyph unicode="&#xe90d;" glyph-name="sc_33" d="M860.288 596.288l-320 320c-7.264 7.2-17.216 11.712-28.288 11.712-11.040 0-21.024-4.512-28.288-11.712l-320-320c-7.232-7.232-11.712-17.28-11.712-28.288 0-22.112 17.92-40 40-40 11.072 0 21.024 4.448 28.288 11.712l251.712 251.712v-783.424c0-22.112 17.92-40 40-40s40 17.888 40 40v783.424l251.712-251.712c7.264-7.264 17.248-11.712 28.288-11.712 22.080 0 40 17.888 40 40 0 11.008-4.48 21.056-11.712 28.288z" />
<glyph unicode="&#xe90e;" glyph-name="sc_34" d="M992 644.352c0 156.672-126.976 283.648-283.648 283.648-76.256 0-145.376-30.272-196.352-79.296-50.976 49.024-120.096 79.296-196.352 79.296-156.672 0-283.648-126.976-283.648-283.648 0-18.24 2.88-40 2.016-32.576 30.56-280.16 436-643.776 477.984-643.776s447.424 363.616 478.016 643.776c-0.864-7.424 1.984 14.336 1.984 32.576zM946.624 616.512c-25.472-233.408-353.568-552.352-434.624-601.28-81.056 48.928-409.184 367.904-434.656 601.6 0 0-1.728 12.608-1.728 27.552 0 132.352 107.648 240 240 240 62.112 0 121.12-23.84 166.112-67.072l30.272-29.12 30.24 29.056c44.992 43.264 104 67.072 166.112 67.072 132.352 0 240-107.648 240-240 0-15.2-1.728-27.808-1.728-27.808z" />
<glyph unicode="&#xe90f;" glyph-name="sc_35" d="M992 644.352c0 156.672-126.976 283.648-283.648 283.648-76.256 0-145.376-30.272-196.352-79.296-50.976 49.024-120.096 79.296-196.352 79.296-156.672 0-283.648-126.976-283.648-283.648 0-18.24 2.88-40 2.016-32.576 30.56-280.16 436-643.776 477.984-643.776s447.424 363.616 478.016 643.776c-0.864-7.424 1.984 14.336 1.984 32.576z" />
<glyph unicode="&#xe910;" glyph-name="sc_36" d="M488.704 98.912c12.064 0 21.824 9.76 21.824 21.824v523.616c0 12.064-9.76 21.824-21.824 21.824-12.032 0-21.824-9.76-21.824-21.824v-523.648c0.032-12.032 9.792-21.792 21.824-21.792zM618.912 98.944c12.032-0.448 22.144 8.96 22.592 20.992l31.616 523.072c0.448 12.032-8.96 22.144-20.992 22.624-12.032 0.416-22.144-8.96-22.592-21.024l-31.616-523.072c-0.448-12.064 8.96-22.176 20.992-22.592zM859.616 797.088h-218.144v87.264c0 24.128-19.552 43.648-43.648 43.648h-218.176c-24.128 0-43.648-19.52-43.648-43.648v-87.264h-218.176c-12.032 0-21.824-9.76-21.824-21.824 0-12.032 9.792-21.792 21.824-21.792h43.648l43.616-698.176c7.040-47.808 39.072-87.296 87.296-87.296h392.704c48.224 0 79.072 40 87.296 87.296l43.616 698.144h43.616c12.064 0 21.856 9.76 21.856 21.792 0 12.096-9.792 21.856-21.856 21.856zM379.616 884.352h218.176v-87.264h-218.176v87.264zM728.704 55.296c-2.944-23.008-19.52-43.648-43.616-43.648h-392.704c-24.128 0-40.32 20.352-43.648 43.648l-43.648 698.144h567.296l-43.68-698.144zM358.624 98.912c12.032 0.48 21.44 10.592 20.992 22.624l-32.128 523.040c-0.448 12.032-10.56 21.44-22.624 21.024-12.032-0.448-21.44-10.592-20.96-22.656l32.128-523.040c0.448-12.032 10.56-21.408 22.592-20.992z" />
<glyph unicode="&#xe911;" glyph-name="sc_37" d="M929.088 757.376l-512.352-494.048-320.768 332.64c-14.208 14.816-37.92 15.264-52.672 0.832-14.688-14.144-15.2-37.568-0.832-52.608l346.528-359.2c7.104-7.328 16.192-14.432 26.816-11.36 9.44 0 18.784 3.712 25.792 10.368l538.912 520.032c14.944 14.144 15.296 37.76 1.28 52.512-14.432 14.688-37.856 15.008-52.704 0.832z" />
<glyph unicode="&#xe912;" glyph-name="sc_38" d="M848.992 586.080l-0.192 0.32c-15.488 31.52-27.264 58.784-37.024 122.24l-1.664 10.656-10.176-3.552c-43.232-15.040-74.112-43.136-91.84-83.488-17.344-39.488-22.112-91.328-14.176-154.080l0.256-2.048-1.728 1.6c-91.040 86.112-130.816 229.152-121.6 437.248l0.576 13.024-12.384-4.128c-126.912-42.272-202.080-128.32-223.424-255.712-18.144-108.416 7.104-222.56 20.672-283.904 2.112-9.664 4.16-18.816 5.632-26.272l0.32-1.504-1.6 0.928c-37.472 21.536-69.216 68.64-94.4 139.936-13.056 36.96-20.736 70.688-24.16 87.52l-2.592 12.8-11.008-7.008c-74.176-47.168-108-153.696-108-232.736 0-215.008 175.648-389.92 391.52-389.92 104.544 0 202.848 40.544 276.768 114.144 74.016 73.664 114.752 171.584 114.752 275.808 0 40.608-5.312 144.16-54.528 228.128v0zM639.424 52.096c-39.616-16.768-82.496-25.28-127.424-25.28-89.28 0-172.224 33.344-233.504 93.952-61.568 60.896-96.832 145.12-99.328 237.12-0.96 37.408 21.248 114.336 34.144 127.2l0.992 0.992 0.48-1.216c1.248-3.488 2.592-7.456 4-11.648 10.016-29.312 25.12-73.6 56.64-112.032 38.112-46.56 90.368-71.648 155.264-74.528l12.032-0.544-2.944 11.712c-2.112 8.352-4.352 17.056-6.688 26.080l-0.256 0.896c-20.448 79.2-45.888 177.76-44.032 272.832 0.992 51.744 10.368 97.248 27.808 135.232 20.288 44.096 52.192 79.84 94.88 106.208l1.312 0.832v-1.312c0-127.424 22.080-235.648 63.904-312.928 43.136-79.776 103.872-122.464 180.64-126.88l12.576-0.704-3.424 12.128c-14.464 51.168-26.048 147.136 1.376 201.92l0.928 1.888 0.64-1.984c3.744-11.936 10.656-27.296 18.656-45.088l0.032-0.064c22.304-49.728 56.064-124.832 56.704-208.928v-0.032c-7.552-92.32-44.224-176.16-103.2-236.096-29.632-30.144-64-53.6-102.208-69.728v0zM796.288 570.56v0 0 0 0z" />
<glyph unicode="&#xe913;" glyph-name="sc_45" d="M992 578.912h-349.088l-130.912 349.088-130.912-349.088h-349.088l283.648-218.208-130.944-392.704 327.296 240 327.296-240-130.944 392.704z" />
<glyph unicode="&#xe914;" glyph-name="sc_46" d="M992 578.912h-349.088l-130.912 349.088-130.912-349.088h-349.088l283.648-218.208-130.944-392.704 327.296 240 327.296-240-130.912 392.704 283.616 218.208zM754.528 84.256l-242.528 177.824-25.792-18.88-216.736-158.944 97.376 292.128-206.56 158.912h251.040l100.672 268.416 100.672-268.448h251.040l-206.592-158.912 9.824-29.472 87.584-262.624z" />
<glyph unicode="&#xe915;" glyph-name="sc_47" d="M926.080 156.224h0.064v0.512l-0.064-0.512zM307.904 856.064h-216.768c-32.608 0-59.136-26.528-59.136-59.104v-216.768c0-32.608 26.528-59.104 59.136-59.104h216.768c32.576 0 59.136 26.496 59.136 59.104v216.768c-0.032 32.576-26.56 59.104-59.136 59.104zM310.624 796.96v-216.768c0-1.504-1.248-2.752-2.72-2.752h-216.768c-1.472 0-2.784 1.28-2.784 2.752v216.768c0 1.536 1.28 2.752 2.784 2.752h216.768c1.504 0.032 2.72-1.184 2.72-2.752zM305.856 370.080h-212.704c-32 0-58.016-26.080-58.016-58.016v-212.704c0-32 26.016-58.016 58.016-58.016h212.704c32 0 58.016 26.016 58.016 58.016v212.704c0 31.936-26.016 58.016-58.016 58.016zM308.544 312.064v-212.704c0-1.504-1.216-2.688-2.688-2.688h-212.704c-1.472 0-2.72 1.216-2.72 2.688v212.704c0 1.504 1.248 2.72 2.72 2.72h212.704c1.504 0 2.688-1.216 2.688-2.72zM563.008 796.608c0.992-0.672 2.176-1.088 3.424-1.088h2.432c0.608-0.064 1.216-0.064 1.856 0h383.232c0.32-0.032 0.672-0.064 0.928-0.064 0.32 0 0.672 0.032 0.928 0.064h1.984c1.088 0 2.048 0.352 2.88 0.832 16.352 2.816 28.416 16.768 28.416 33.28 0 16.256-11.68 30.016-27.648 33.12-1.024 0.736-2.272 1.248-3.648 1.248h-391.328c-1.216 0-2.4-0.576-3.392-1.376-15.776-3.2-27.456-16.928-27.456-32.992-0.032-16.096 11.648-29.824 27.392-33.024zM562.528 542.944c1.024-0.928 2.432-1.536 3.936-1.536h391.328c1.248 0 2.336 0.544 3.328 1.28 16.064 2.976 27.968 16.8 27.968 33.184 0 16.48-12.032 30.4-28.256 33.216-0.896 0.544-1.952 0.8-3.008 0.8l-0.96-0.16c-0.768 0.192-1.984 0.256-3.104 0.16l-382.016-0.16c-0.832 0.192-1.984 0.256-3.136 0.16h-2.144c-1.12 0-2.080-0.32-3.008-0.96-16-3.040-27.808-16.864-27.808-33.056-0.032-15.904 11.296-29.504 26.88-32.928zM562.592 285.824c1.024-0.896 2.432-1.472 3.872-1.472h391.328c0.576 0 1.088 0.064 1.632 0.224 18.048 0.832 32.576 15.84 32.576 34.176 0 18.784-15.36 34.144-34.208 34.144-0.256 0-0.608-0.032-0.96-0.064h-386.144c-0.608 0.064-1.184 0.064-1.856 0h-2.368c-1.152 0-2.176-0.352-3.072-0.992-15.968-3.072-27.744-16.896-27.744-33.088-0.032-15.936 11.392-29.504 26.944-32.928zM960 126.592c-0.672 0.256-1.472 0.448-2.208 0.448h-391.328c-1.312 0-2.592-0.64-3.52-1.536-15.744-3.296-27.328-16.96-27.328-32.992 0-16.192 11.808-30.016 27.744-33.088 0.896-0.544 1.952-0.832 3.072-0.832l0.992 0.16c0.416-0.064 0.992-0.288 3.584-0.16l384.416 0.16c0.64-0.16 1.824-0.384 2.368-0.384 18.848 0 34.208 15.328 34.208 34.144 0 18.080-14.112 32.864-32 34.080z" />
<glyph unicode="&#xe916;" glyph-name="sc_48" d="M386.912 928l-272.448-0.096c-45.632-0.576-82.464-37.632-82.464-83.392v-271.392c0.096-45.696 36.864-82.688 82.464-83.296l272.448-0.064c46.016 0.064 83.296 37.472 83.328 83.488v271.296c0 46.048-37.312 83.392-83.328 83.456v0zM386.784 531.456h-271.328c-23.040 0-41.728 18.688-41.728 41.728v271.328c0 23.040 18.688 41.76 41.728 41.76h271.328c23.040 0 41.76-18.688 41.76-41.76v-271.328c0-23.008-18.688-41.728-41.76-41.728v0zM908.672 928l-272.48-0.096c-45.632-0.576-82.432-37.632-82.432-83.36v-271.392c0.064-45.696 36.864-82.688 82.432-83.296l272.48-0.064c45.984 0.064 83.264 37.472 83.328 83.488v271.264c0 46.048-37.312 83.392-83.328 83.456v0zM908.544 531.456h-271.328c-23.040 0-41.76 18.688-41.76 41.728v271.328c0 23.040 18.72 41.76 41.76 41.76h271.328c23.040 0 41.728-18.688 41.728-41.76v-271.328c-0.032-23.008-18.688-41.728-41.728-41.728v0zM386.912 406.24l-272.448-0.096c-45.632-0.576-82.464-37.632-82.464-83.392v-271.392c0.096-45.696 36.864-82.688 82.464-83.296l272.448-0.064c46.016 0.064 83.296 37.472 83.328 83.488v271.328c0 46.016-37.312 83.36-83.328 83.424v0zM386.784 9.728h-271.328c-23.040 0-41.728 18.688-41.728 41.728v271.328c0 23.040 18.688 41.76 41.728 41.76h271.328c23.040 0 41.76-18.688 41.76-41.76v-271.328c0-23.040-18.688-41.728-41.76-41.728v0zM908.672 406.24l-272.48-0.064c-45.632-0.576-82.432-37.632-82.432-83.36v-271.424c0.064-45.696 36.864-82.688 82.432-83.264l272.48-0.128c45.984 0.064 83.264 37.472 83.328 83.488v271.328c0 46.016-37.312 83.36-83.328 83.424v0zM908.544 9.728h-271.328c-23.040 0-41.76 18.688-41.76 41.728v271.328c0 23.040 18.72 41.76 41.76 41.76h271.328c23.040 0 41.728-18.688 41.728-41.76v-271.328c-0.032-23.040-18.688-41.728-41.728-41.728v0z" />
</font>
</defs>
</svg>
